<svg width="148" height="136" viewBox="0 0 148 136" fill="none" xmlns="http://www.w3.org/2000/svg">
<path fill-rule="evenodd" clip-rule="evenodd" d="M30.9024 136H117.098C120.99 136 124.779 135.347 128.316 134.055C140.097 129.866 148 119.231 148 107.617V28.3968C148 16.8912 140.541 6.6096 129.012 2.1896C125.223 0.7344 121.227 0 117.098 0H30.8876C26.9952 0 23.2212 0.6528 19.684 1.9448C7.90318 6.1336 0 16.7552 0 28.3832V107.603C0 119.109 7.45918 129.39 18.9884 133.81C22.7772 135.266 26.788 136 30.9024 136ZM21.2528 5.6304C24.3016 4.5152 27.5428 3.9576 30.8876 3.9576H117.098C120.65 3.9576 124.098 4.5832 127.354 5.8344C137.285 9.6424 143.693 18.4824 143.693 28.3832V107.603C143.693 117.599 136.885 126.738 126.747 130.356C123.698 131.471 120.457 132.029 117.112 132.029H30.9024C27.3504 132.029 23.902 131.403 20.646 130.152C10.7152 126.344 4.30681 117.504 4.30681 107.603V28.3832C4.30681 18.3872 11.1148 9.248 21.2528 5.6304ZM71.0104 117.055C72.6828 118.524 75.3024 118.524 76.9748 117.055H76.96L123.18 76.432C134.858 66.164 139.016 52.4144 134.31 39.6576C130.284 28.764 120.472 20.9984 109.313 19.8696C102.653 19.1896 90.5464 20.4544 78.4696 34.2992C76.1756 36.9376 71.8096 36.9376 69.5008 34.2992C57.4092 20.468 45.288 19.2032 38.6428 19.8696C27.4984 20.9984 17.686 28.764 13.6604 39.6576C8.95401 52.4144 13.1128 66.164 24.79 76.432L24.8196 76.4048C25.2636 76.8536 25.9148 77.4248 26.8472 78.2408L71.0104 117.055ZM39.1312 23.8C39.9452 23.7184 40.7592 23.6776 41.5732 23.6776L41.5584 23.6912C52.2884 23.6912 62.826 30.7904 71.4988 43.9008L72.1352 44.8528H75.8352L76.4716 43.9008C85.7956 29.784 97.2952 22.644 108.854 23.8136C118.341 24.7656 126.732 31.484 130.225 40.936C134.384 52.1968 130.64 64.396 120.206 73.576L76.9748 111.574C75.3172 113.03 72.6976 113.043 71.0252 111.574C64.2228 105.598 50.9987 93.9727 40.9558 85.1442C33.562 78.6444 27.8925 73.6604 27.7796 73.5624C17.3456 64.3824 13.6012 52.1832 17.76 40.9224C21.2528 31.484 29.6296 24.752 39.1312 23.8Z" fill="#2E2222"/>
</svg>
