<svg width="137" height="136" viewBox="0 0 137 136" fill="none" xmlns="http://www.w3.org/2000/svg">
<path fill-rule="evenodd" clip-rule="evenodd" d="M119.437 2.1896C115.943 0.7344 112.23 0 108.408 0H28.6056C25.0025 0 21.509 0.6528 18.221 1.9448C7.32948 6.1472 0 16.7688 0 28.3832V107.603C0 119.109 6.90482 129.39 17.5771 133.81C21.0706 135.266 24.7833 136 28.6056 136H108.408C112.011 136 115.505 135.347 118.779 134.055C129.671 129.853 137 119.231 137 107.617V28.3832C137 16.8912 130.095 6.596 119.423 2.176L119.437 2.1896ZM133.027 107.617C133.027 117.613 126.725 126.766 117.341 130.37C114.518 131.471 111.518 132.042 108.422 132.042H28.6193C25.3313 132.042 22.1392 131.403 19.1252 130.166C9.94623 126.358 4.00038 117.518 4.00038 107.617V28.3832C4.00038 18.3872 10.3024 9.2344 19.6869 5.6304C22.5091 4.5288 25.5094 3.9576 28.6056 3.9576H108.408C111.696 3.9576 114.888 4.5968 117.902 5.8344C127.081 9.6424 133.027 18.4824 133.027 28.3832V107.603V107.617ZM115.943 72.692L107.271 72.0936C94.2697 71.196 83.7755 60.7784 82.8713 47.872L82.2685 39.2632C82.1863 38.0664 81.2136 37.1552 79.9943 37.1552C78.775 37.1552 77.8023 38.0664 77.7201 39.2632L77.1174 47.872C76.2132 60.7784 65.7189 71.196 52.7176 72.0936L44.0455 72.692C42.8399 72.7736 41.9221 73.7392 41.9221 74.9496C41.9221 76.1464 42.8262 77.1256 44.0455 77.2072L52.7176 77.8056C65.7189 78.7032 76.2132 89.1208 77.1174 102.027L77.7201 110.636C77.8023 111.833 78.775 112.744 79.9943 112.744C81.2136 112.744 82.1863 111.833 82.2685 110.636L82.8713 102.027C83.7755 89.1208 94.2697 78.7032 107.271 77.8056L115.957 77.2072C117.162 77.1256 118.08 76.1464 118.08 74.9496C118.08 73.7528 117.162 72.7736 115.957 72.692H115.943ZM79.9806 95.5536C77.1036 85.6528 69.185 77.8056 59.2114 74.936C69.185 72.08 77.0899 64.2192 79.9806 54.3184C82.8576 64.2192 90.7763 72.0664 100.75 74.936C90.7763 77.792 82.8713 85.6528 79.9806 95.5536ZM43.9907 52.3192L43.8126 56.0592H43.8263C43.7715 57.2288 42.8125 58.14 41.6343 58.14C40.4561 58.14 39.4972 57.2288 39.4424 56.0592L39.2642 52.3328C38.9765 46.1312 34.0308 41.2216 27.7836 40.936L24.0161 40.7592C22.8379 40.7048 21.92 39.7528 21.92 38.5832C21.92 37.4136 22.8379 36.4616 24.0161 36.4072L27.7699 36.2304C34.0171 35.9448 38.9628 31.0352 39.2505 24.8336L39.4286 21.0936C39.4834 19.924 40.4424 19.0128 41.6206 19.0128C42.7851 19.0128 43.7578 19.924 43.8126 21.08L43.9907 24.82C44.2784 31.0216 49.2241 35.9312 55.4713 36.2168L59.2388 36.3936C60.417 36.448 61.3349 37.4 61.3349 38.5696C61.3349 39.7256 60.417 40.6912 59.2388 40.7456L55.4713 40.9224C49.2241 41.208 44.2784 46.1176 43.9907 52.3192ZM41.6206 31.3208C40.0725 34.476 37.497 37.0328 34.3049 38.5832C37.4833 40.12 40.0588 42.6768 41.6206 45.8456C43.1687 42.6904 45.7443 40.1336 48.9364 38.5832C45.758 37.0464 43.1824 34.4896 41.6206 31.3208Z" fill="#2E2222"/>
</svg>
