<svg width="135" height="137" viewBox="0 0 135 137" fill="none" xmlns="http://www.w3.org/2000/svg">
<path fill-rule="evenodd" clip-rule="evenodd" d="M108 0H27C12.0825 0 0 12.2615 0 27.4V109.6C0 124.739 12.0825 137 27 137H108C122.918 137 135 124.739 135 109.6V27.4C135 12.2615 122.918 0 108 0ZM130.95 109.6C130.95 122.437 120.65 132.89 108 132.89H27C14.3505 132.89 4.05 122.437 4.05 109.6V27.4C4.05 14.5631 14.3505 4.11 27 4.11H108C120.65 4.11 130.95 14.5631 130.95 27.4V109.6ZM116.627 21.235C113.265 17.8237 108.31 16.1112 102.289 16.2208C101.776 16.2208 101.331 15.9468 101.075 15.4947C99.5625 12.8095 96.714 11.0011 93.4605 11.0011C88.6275 11.0011 84.6855 15.0015 84.6855 19.9061C84.6855 20.0724 84.6973 20.2267 84.7098 20.3913L84.7125 20.4267C79.11 22.742 73.3185 25.9204 67.527 29.8112C46.953 15.9331 27.567 11.919 18.3735 21.2487C9.17999 30.5784 13.1355 50.2516 26.811 71.1304C22.734 77.3776 19.4535 83.6111 17.145 89.6117C11.7585 103.558 12.204 114.696 18.387 120.957C21.762 124.382 26.514 126.013 32.1975 126.013C41.9715 126.013 54.513 121.177 67.5135 112.409C80.514 121.177 93.042 126.013 102.83 126.013C108.513 126.013 113.265 124.382 116.64 120.957C122.823 114.683 123.255 103.558 117.882 89.6117C115.56 83.6111 112.28 77.3502 108.189 71.103C112.266 64.8558 115.56 58.6086 117.882 52.5943C123.255 38.6477 122.823 27.5096 116.64 21.2487L116.627 21.235ZM93.4605 15.0974C96.066 15.0974 98.1855 17.2483 98.1855 19.8924C98.1855 22.5365 96.066 24.6874 93.4605 24.6874C90.855 24.6874 88.7355 22.5365 88.7355 19.8924C88.7355 17.2483 90.855 15.0974 93.4605 15.0974ZM21.2355 24.1394C23.8005 21.5364 27.54 20.3034 32.076 20.3034C39.771 20.3034 49.788 23.8654 60.3855 30.2222C62.0325 31.2086 62.181 33.5787 60.6555 34.7569C55.3905 38.8121 50.193 43.4153 45.2115 48.4706C40.23 53.5259 35.6805 58.8141 31.6845 64.1571C30.537 65.7052 28.188 65.5408 27.216 63.8831C17.253 46.7855 14.31 31.1812 21.2355 24.1531V24.1394ZM60.372 111.984C43.524 122.081 28.161 125.067 21.2355 118.039C16.335 113.066 16.2135 103.243 20.9115 91.0913C22.518 86.9128 24.6375 82.611 27.162 78.2681C28.134 76.5967 30.4695 76.446 31.6305 77.9941C35.586 83.2686 40.122 88.5568 45.2115 93.708C50.274 98.8455 55.4715 103.435 60.6555 107.449C62.1675 108.627 62.019 110.997 60.372 111.984ZM58.9545 100.805C55.269 97.7495 51.624 94.4067 48.0735 90.8036C44.523 87.1868 41.2155 83.4878 38.205 79.734C34.128 74.6787 34.1415 67.404 38.232 62.3487C41.256 58.6086 44.55 54.937 48.0735 51.3613C51.597 47.7856 55.2285 44.4428 58.9005 41.3877C63.8685 37.2366 71.037 37.2229 76.0185 41.3466C79.7175 44.4017 83.376 47.7445 86.94 51.3613C90.4635 54.937 93.771 58.636 96.795 62.3761C100.899 67.4314 100.899 74.7335 96.795 79.7888C93.771 83.5289 90.4635 87.2142 86.94 90.8036C83.3895 94.4067 79.7445 97.7495 76.059 100.805C71.091 104.928 63.936 104.928 58.968 100.805H58.9545ZM114.102 91.105C118.787 103.257 118.665 113.08 113.778 118.053C106.853 125.081 91.476 122.081 74.6415 111.997C72.9945 111.011 72.846 108.641 74.358 107.463C79.542 103.462 84.7395 98.8729 89.802 93.7217C94.8105 88.639 99.36 83.3371 103.37 77.9804C104.517 76.4323 106.866 76.5967 107.838 78.2544C110.376 82.611 112.496 86.9128 114.102 91.105ZM114.102 51.0873C112.482 55.2658 110.376 59.5813 107.838 63.9379C106.866 65.6093 104.531 65.76 103.37 64.2119C99.36 58.8415 94.8105 53.5396 89.802 48.4706C84.726 43.3194 79.515 38.7025 74.3175 34.7021C72.792 33.5239 72.927 31.1538 74.574 30.1674C78.0435 28.085 81.486 26.2903 84.861 24.8107C85.428 24.5641 86.0895 24.7422 86.454 25.2491C88.0605 27.4137 90.5985 28.8111 93.4605 28.8111C97.7805 28.8111 101.372 25.619 102.087 21.4405C102.195 20.7966 102.762 20.3171 103.397 20.3308C107.852 20.4267 111.334 21.6871 113.764 24.1394C118.665 29.1125 118.787 38.9354 114.089 51.0873H114.102ZM72.711 68.4041C72.711 71.3777 70.3356 73.7882 67.4055 73.7882C64.4753 73.7882 62.1 71.3777 62.1 68.4041C62.1 65.4306 64.4753 63.02 67.4055 63.02C70.3356 63.02 72.711 65.4306 72.711 68.4041Z" fill="#2E2222" fill-opacity="0.8"/>
</svg>
