<svg width="135" height="136" viewBox="0 0 135 136" fill="none" xmlns="http://www.w3.org/2000/svg">
<path d="M108.011 0H27.0027C12.0837 0 0 12.172 0 27.2L0.29699 86.8088C0.29699 88.3048 1.51211 89.5152 2.99726 89.5152H15.9181C16.9982 89.5152 17.9838 88.8624 18.4023 87.856L21.9532 79.3696C22.4123 78.268 23.9784 78.2544 24.4374 79.3696L39.0324 114.077C39.4779 115.138 40.9361 115.192 41.4627 114.186L73.4474 53.2712C73.9469 52.3192 75.3105 52.3056 75.8235 53.2576L95.5491 89.5288H111.454C112.196 89.5288 112.804 88.9168 112.804 88.1688V86.8088C112.804 86.0608 112.196 85.4488 111.454 85.4488H97.9523L75.7561 44.6488C75.243 43.6968 73.8794 43.7104 73.3798 44.6624L41.8542 104.679C41.3276 105.686 39.856 105.631 39.424 104.57L24.424 68.884C23.9649 67.7824 22.3987 67.7824 21.9397 68.884L15.7021 83.776C15.2835 84.7824 14.2979 85.4352 13.2178 85.4352H6.73716C5.25201 85.4352 4.03689 84.2112 4.03689 82.7152V27.2C4.03689 14.4296 14.3114 4.08 26.9892 4.08H107.997C120.675 4.08 130.95 14.4296 130.95 27.2V108.8C130.95 121.57 120.675 131.92 107.997 131.92H15.486C14.7434 131.92 14.1359 132.532 14.1359 133.28V134.64C14.1359 135.388 14.7434 136 15.486 136H107.997C122.916 136 135 123.828 135 108.8V27.2C135 12.172 122.916 0 107.997 0H108.011Z" fill="#1E1E1E"/>
</svg>
